<svg width="18" height="18" viewBox="0 0 18 18" fill="none" xmlns="http://www.w3.org/2000/svg">
<g id="visibility_off_FILL0_wght400_GRAD0_opsz24 1">
<path id="Vector" d="M12.075 9.975L10.9875 8.8875C11.1 8.3 10.9313 7.75 10.4813 7.2375C10.0312 6.725 9.45 6.525 8.7375 6.6375L7.65 5.55C7.8625 5.45 8.07813 5.375 8.29688 5.325C8.51563 5.275 8.75 5.25 9 5.25C9.9375 5.25 10.7344 5.57812 11.3906 6.23437C12.0469 6.89062 12.375 7.6875 12.375 8.625C12.375 8.875 12.35 9.10937 12.3 9.32812C12.25 9.54687 12.175 9.7625 12.075 9.975ZM14.475 12.3375L13.3875 11.2875C13.8625 10.925 14.2844 10.5281 14.6531 10.0969C15.0219 9.66562 15.3375 9.175 15.6 8.625C14.975 7.3625 14.0781 6.35937 12.9094 5.61562C11.7406 4.87187 10.4375 4.5 9 4.5C8.6375 4.5 8.28125 4.525 7.93125 4.575C7.58125 4.625 7.2375 4.7 6.9 4.8L5.7375 3.6375C6.25 3.425 6.775 3.26562 7.3125 3.15937C7.85 3.05312 8.4125 3 9 3C10.8875 3 12.5688 3.52187 14.0438 4.56562C15.5188 5.60937 16.5875 6.9625 17.25 8.625C16.9625 9.3625 16.5844 10.0469 16.1156 10.6781C15.6469 11.3094 15.1 11.8625 14.475 12.3375ZM14.85 16.95L11.7 13.8375C11.2625 13.975 10.8219 14.0781 10.3781 14.1469C9.93438 14.2156 9.475 14.25 9 14.25C7.1125 14.25 5.43125 13.7281 3.95625 12.6844C2.48125 11.6406 1.4125 10.2875 0.75 8.625C1.0125 7.9625 1.34375 7.34687 1.74375 6.77812C2.14375 6.20937 2.6 5.7 3.1125 5.25L1.05 3.15L2.1 2.1L15.9 15.9L14.85 16.95ZM4.1625 6.3C3.8 6.625 3.46875 6.98125 3.16875 7.36875C2.86875 7.75625 2.6125 8.175 2.4 8.625C3.025 9.8875 3.92188 10.8906 5.09063 11.6344C6.25938 12.3781 7.5625 12.75 9 12.75C9.25 12.75 9.49375 12.7344 9.73125 12.7031C9.96875 12.6719 10.2125 12.6375 10.4625 12.6L9.7875 11.8875C9.65 11.925 9.51875 11.9531 9.39375 11.9719C9.26875 11.9906 9.1375 12 9 12C8.0625 12 7.26563 11.6719 6.60938 11.0156C5.95312 10.3594 5.625 9.5625 5.625 8.625C5.625 8.4875 5.63438 8.35625 5.65313 8.23125C5.67188 8.10625 5.7 7.975 5.7375 7.8375L4.1625 6.3Z" fill="currentColor"/>
</g>
</svg>
