<svg width="16" height="16" viewBox="0 0 16 16" fill="none" xmlns="http://www.w3.org/2000/svg">
<path d="M8 9.33333C7.63333 9.33333 7.31944 9.20278 7.05833 8.94167C6.79722 8.68056 6.66667 8.36667 6.66667 8C6.66667 7.63333 6.79722 7.31944 7.05833 7.05833C7.31944 6.79722 7.63333 6.66667 8 6.66667C8.36667 6.66667 8.68056 6.79722 8.94167 7.05833C9.20278 7.31944 9.33333 7.63333 9.33333 8C9.33333 8.36667 9.20278 8.68056 8.94167 8.94167C8.68056 9.20278 8.36667 9.33333 8 9.33333ZM8 14C6.45556 14 5.11667 13.4917 3.98333 12.475C2.85 11.4583 2.2 10.1889 2.03333 8.66667H3.4C3.55556 9.82222 4.06944 10.7778 4.94167 11.5333C5.81389 12.2889 6.83333 12.6667 8 12.6667C9.3 12.6667 10.4028 12.2139 11.3083 11.3083C12.2139 10.4028 12.6667 9.3 12.6667 8C12.6667 6.7 12.2139 5.59722 11.3083 4.69167C10.4028 3.78611 9.3 3.33333 8 3.33333C7.23333 3.33333 6.51667 3.51111 5.85 3.86667C5.18333 4.22222 4.62222 4.71111 4.16667 5.33333H6V6.66667H2V2.66667H3.33333V4.23333C3.9 3.52222 4.59167 2.97222 5.40833 2.58333C6.225 2.19444 7.08889 2 8 2C8.83333 2 9.61389 2.15833 10.3417 2.475C11.0694 2.79167 11.7028 3.21944 12.2417 3.75833C12.7806 4.29722 13.2083 4.93056 13.525 5.65833C13.8417 6.38611 14 7.16667 14 8C14 8.83333 13.8417 9.61389 13.525 10.3417C13.2083 11.0694 12.7806 11.7028 12.2417 12.2417C11.7028 12.7806 11.0694 13.2083 10.3417 13.525C9.61389 13.8417 8.83333 14 8 14Z" fill="currentColor"/>
</svg>
